<svg width="34" height="35" viewBox="0 0 34 35" fill="none" xmlns="http://www.w3.org/2000/svg">
<path d="M32.6944 19.356L19.4994 5.75903C18.8026 5.04142 17.8711 4.64106 16.8882 4.64106C16.8076 4.64106 16.7269 4.64106 16.6462 4.64862L7.10379 5.29825C6.06961 5.36623 5.23346 6.22737 5.16744 7.29247L4.94007 10.7823C4.45598 10.4953 3.9939 10.1327 3.57582 9.70215C2.5563 8.65216 1.92552 7.34534 1.7935 6.01587C1.66881 4.75437 2.02087 3.62885 2.78368 2.84325C4.40464 1.17385 7.38985 1.54398 9.45089 3.65906C9.79562 4.01409 10.353 4.01409 10.6978 3.65906C11.0425 3.30403 11.0425 2.72994 10.6978 2.37491C7.93995 -0.442679 3.83253 -0.805264 1.52945 1.56665C0.385244 2.74505 -0.142852 4.38423 0.0331799 6.20471C0.201877 7.94965 1.01602 9.64927 2.32159 10.9939C3.05506 11.7492 3.90588 12.346 4.80805 12.7539L4.52933 17.1276C4.45598 18.2229 4.85205 19.2955 5.60752 20.0736L18.8099 33.6705C19.6461 34.5317 20.7536 35 21.9345 35C23.1154 35 24.2229 34.5241 25.059 33.6705L32.7091 25.7919C33.5452 24.9307 34 23.7901 34 22.5739C33.9927 21.3502 33.5306 20.2096 32.6944 19.356ZM31.4549 24.5001L23.7975 32.3864C23.2987 32.9 22.6313 33.1871 21.9198 33.1871C21.2083 33.1871 20.5409 32.9 20.0421 32.3864L6.83975 18.7894C6.44367 18.3815 6.2383 17.8225 6.27498 17.2484L6.53169 13.2902C6.67838 13.3129 6.82508 13.3355 6.97177 13.3507C7.19181 13.3733 7.41185 13.3884 7.62456 13.3884C9.12816 13.3884 10.4704 12.8445 11.4679 11.8172C11.8126 11.4622 11.8126 10.8881 11.4679 10.5331C11.1232 10.178 10.5658 10.178 10.221 10.5331C9.45822 11.3187 8.36536 11.6813 7.14047 11.5528C6.97177 11.5377 6.81041 11.5075 6.64905 11.4773L6.91309 7.42844C6.92043 7.26225 7.05245 7.13384 7.21381 7.11873L16.7562 6.4691C16.8002 6.4691 16.8442 6.46154 16.8882 6.46154C17.4017 6.46154 17.9004 6.67305 18.2598 7.04319L31.4549 20.6326C31.9536 21.1462 32.2323 21.8336 32.2323 22.5664C32.2323 23.2991 31.9536 23.9865 31.4549 24.5001Z" fill="#29AB6A"/>
</svg>
