<svg width="23" height="22" viewBox="0 0 23 22" fill="none" xmlns="http://www.w3.org/2000/svg">
<path d="M20.5807 16.9676C20.5807 17.9191 20.2768 18.6705 19.669 19.2216C19.0612 19.7727 18.2535 20.0482 17.2461 20.0482H6.33072C5.32327 20.0482 4.51565 19.7727 3.90785 19.2216C3.30005 18.6705 2.99615 17.9191 2.99615 16.9676C2.99615 16.5473 3.01073 16.137 3.03987 15.7365C3.06901 15.3361 3.12729 14.9039 3.21471 14.4401C3.30214 13.9762 3.41245 13.546 3.54567 13.1495C3.67889 12.7531 3.8579 12.3665 4.0827 11.9898C4.3075 11.6132 4.56561 11.292 4.85702 11.0264C5.14843 10.7608 5.50436 10.5487 5.92482 10.3901C6.34529 10.2315 6.80946 10.1522 7.31735 10.1522C7.39228 10.1522 7.56713 10.2374 7.84189 10.4079C8.11664 10.5784 8.42679 10.7687 8.77232 10.9788C9.11784 11.189 9.56745 11.3793 10.1211 11.5498C10.6748 11.7202 11.2306 11.8055 11.7884 11.8055C12.3463 11.8055 12.902 11.7202 13.4557 11.5498C14.0094 11.3793 14.459 11.189 14.8045 10.9788C15.15 10.7687 15.4602 10.5784 15.7349 10.4079C16.0097 10.2374 16.1845 10.1522 16.2595 10.1522C16.7674 10.1522 17.2315 10.2315 17.652 10.3901C18.0725 10.5487 18.4284 10.7608 18.7198 11.0264C19.0112 11.292 19.2693 11.6132 19.4941 11.9898C19.7189 12.3665 19.8979 12.7531 20.0311 13.1495C20.1644 13.546 20.2747 13.9762 20.3621 14.4401C20.4495 14.9039 20.5078 15.3361 20.537 15.7365C20.5661 16.137 20.5807 16.5473 20.5807 16.9676ZM16.5842 6.346C16.5842 7.6068 16.1158 8.68323 15.1792 9.5753C14.2425 10.4674 13.1122 10.9134 11.7884 10.9134C10.4646 10.9134 9.33432 10.4674 8.39765 9.5753C7.46097 8.68323 6.99263 7.6068 6.99263 6.346C6.99263 5.08521 7.46097 4.00878 8.39765 3.11671C9.33432 2.22464 10.4646 1.7786 11.7884 1.7786C13.1122 1.7786 14.2425 2.22464 15.1792 3.11671C16.1158 4.00878 16.5842 5.08521 16.5842 6.346Z" fill="#FF4D4D"/>
</svg>
