<svg width="37" height="37" viewBox="0 0 37 37" fill="none" xmlns="http://www.w3.org/2000/svg">
<g clip-path="url(#clip0_28_7)">
<path d="M13.6299 24.8487L13.9628 23.1512C14.6069 19.8583 16.2924 15.3751 20.6623 12.7138L22.3458 11.6898L11.9996 5.36097C10.7614 4.602 9.33988 4.20108 7.89124 4.20108C5.11903 4.20108 2.60118 5.61145 1.15639 7.97218C-1.11216 11.6821 0.060134 16.5462 3.76939 18.8161L13.6299 24.8487ZM3.20925 9.22779C4.21231 7.58641 5.96407 6.60603 7.89124 6.60603C8.89607 6.60603 9.88278 6.88498 10.7456 7.41145L17.8446 11.755C14.4283 14.4782 12.7839 18.1928 11.995 21.0273L5.02322 16.7643C2.44539 15.1866 1.63135 11.8057 3.20925 9.22779Z" fill="#29AB6A"/>
<path d="M33.3968 18.8241L24.1478 13.1653L23.9765 13.2383C22.8982 13.6998 21.9713 14.2752 21.1531 14.9153L30.0604 20.3528C30.3972 20.5598 30.5043 20.9997 30.297 21.3369C30.1632 21.558 29.9273 21.68 29.6866 21.68C29.5597 21.68 29.4313 21.647 29.3134 21.5752C29.3134 21.5752 20.1774 15.9341 20.1193 15.8127C16.8526 19.002 15.94 23.3496 15.691 25.4301L15.6631 25.6597L25.5258 31.6906C26.711 32.4166 28.0696 32.799 29.4537 32.799C32.105 32.799 34.5114 31.4502 35.8933 29.1925C38.0637 25.6454 36.9428 20.994 33.3968 18.8241Z" fill="#29AB6A"/>
</g>
<defs>
<clipPath id="clip0_28_7">
<rect width="37" height="37" fill="white"/>
</clipPath>
</defs>
</svg>
