<svg width="41" height="24" viewBox="0 0 41 24" fill="none" xmlns="http://www.w3.org/2000/svg">
<path d="M39.6484 0H5.67753C5.22527 0 4.85868 0.38598 4.85868 0.86217V2.22168H3.56749C3.11523 2.22168 2.74865 2.60766 2.74865 3.08385V4.44326H1.45703C1.00477 4.44326 0.638184 4.82924 0.638184 5.30543V23.1378C0.638184 23.614 1.00477 24 1.45703 24H35.4276C35.8799 24 36.2465 23.614 36.2465 23.1378V21.7783H37.5375C37.9897 21.7783 38.3563 21.3923 38.3563 20.9162V19.5567H39.6484C40.1006 19.5567 40.4672 19.1707 40.4672 18.6945V0.862079C40.4672 0.38598 40.1006 0 39.6484 0ZM4.67276 6.1676C4.37393 7.40259 3.44872 8.37666 2.27587 8.6914V6.1676H4.67276ZM34.6088 8.6914C33.4358 8.37675 32.5106 7.40259 32.2116 6.1676H34.6088V8.6914ZM30.5404 6.1676C30.8875 8.35524 32.5311 10.0858 34.6089 10.4511V17.9919C32.531 18.3573 30.8874 20.0879 30.5404 22.2757H6.34407C5.99705 20.088 4.35358 18.3575 2.27587 17.992V10.4511C4.35358 10.0856 5.99696 8.35524 6.34407 6.1676H30.5404ZM2.27587 19.7518C3.4488 20.0665 4.37401 21.0407 4.67276 22.2758H2.27587V19.7518ZM32.2116 22.2757C32.5105 21.0406 33.4358 20.0663 34.6088 19.7517V22.2757H32.2116ZM36.7186 20.054H36.2465V5.30543C36.2465 4.82924 35.8799 4.44326 35.4276 4.44326H4.38625V3.94602H36.7186V20.054H36.7186ZM38.8295 17.8323H38.3563V3.08376C38.3563 2.60756 37.9897 2.22159 37.5375 2.22159H6.49637V1.72425H38.8295V17.8323Z" fill="#29AB6A"/>
<path d="M14.5641 19.3073C15.5826 20.7534 16.96 21.5497 18.4423 21.5497C19.9247 21.5497 21.302 20.7533 22.3206 19.3073C23.2849 17.9385 23.8158 16.1324 23.8158 14.2216C23.8158 12.3108 23.2849 10.5047 22.3206 9.13591C21.302 7.68983 19.9247 6.89355 18.4423 6.89355C16.96 6.89355 15.5826 7.68992 14.5641 9.13591C13.5998 10.5047 13.0689 12.3108 13.0689 14.2216C13.0689 16.1324 13.5999 17.9386 14.5641 19.3073ZM18.4424 19.8254C17.6621 19.8254 16.9372 19.4641 16.3373 18.8479C16.4653 17.7443 17.3602 16.8865 18.4424 16.8865C19.5246 16.8865 20.4195 17.7443 20.5476 18.8479C19.9476 19.4641 19.2227 19.8254 18.4424 19.8254ZM18.4426 15.1263C17.7512 15.1263 17.1886 14.534 17.1886 13.806C17.1886 13.0779 17.7511 12.4856 18.4426 12.4856C19.134 12.4856 19.6966 13.0778 19.6966 13.806C19.6965 14.5339 19.134 15.1263 18.4426 15.1263ZM18.4424 8.61789C20.5022 8.61789 22.1782 11.1317 22.1782 14.2217C22.1782 15.2616 21.9878 16.2355 21.6574 17.0711C21.3809 16.592 21.0103 16.1798 20.5732 15.862C21.0454 15.3199 21.3343 14.5979 21.3343 13.806C21.3343 12.1271 20.0371 10.7612 18.4426 10.7612C16.8481 10.7612 15.5509 12.1271 15.5509 13.806C15.5509 14.5978 15.8397 15.3198 16.3119 15.8618C15.8747 16.1797 15.5039 16.5919 15.2274 17.0711C14.897 16.2356 14.7066 15.2616 14.7066 14.2217C14.7066 11.1317 16.3824 8.61789 18.4424 8.61789Z" fill="#29AB6A"/>
</svg>
